<svg width="247" height="124" viewBox="0 0 247 124" fill="none" xmlns="http://www.w3.org/2000/svg">
<g filter="url(#filter0_d_601_477)">
<path d="M12.0194 110.648C16.6188 110.648 19.9209 107.11 19.9209 102.511V79.6319H42.446C46.5737 79.6319 49.7578 76.5656 49.7578 72.438C49.7578 68.4283 46.6916 65.2441 42.446 65.2441H19.9209V45.7852H48.8144C52.942 45.7852 56.1262 42.6011 56.1262 38.5913C56.1262 34.4637 53.06 31.3975 48.8144 31.3975H12.1373C7.42004 31.3975 4 34.8175 4 39.5348V102.511C4 107.11 7.30211 110.648 12.0194 110.648Z" fill="#07070F"/>
<circle cx="207.821" cy="80.233" r="27.0665" stroke="#E8E8E8" stroke-width="0.581091" stroke-linecap="round" stroke-linejoin="round" stroke-dasharray="0.78 2.34"/>
<path d="M174.481 82.3255C174.481 97.0081 162.579 108.911 147.896 108.911C133.213 108.911 121.311 97.0081 121.311 82.3255C121.311 67.6428 133.213 55.7402 147.896 55.7402C162.579 55.7402 174.481 67.6428 174.481 82.3255ZM137.036 82.3255C137.036 88.3234 141.898 93.1857 147.896 93.1857C153.894 93.1857 158.756 88.3234 158.756 82.3255C158.756 76.3275 153.894 71.4652 147.896 71.4652C141.898 71.4652 137.036 76.3275 137.036 82.3255Z" fill="#FF7622"/>
<path d="M113.335 82.3255C113.335 97.0081 101.432 108.911 86.7496 108.911C72.067 108.911 60.1644 97.0081 60.1644 82.3255C60.1644 67.6428 72.067 55.7402 86.7496 55.7402C101.432 55.7402 113.335 67.6428 113.335 82.3255ZM75.8893 82.3255C75.8893 88.3234 80.7517 93.1857 86.7496 93.1857C92.7476 93.1857 97.6099 88.3234 97.6099 82.3255C97.6099 76.3275 92.7476 71.4652 86.7496 71.4652C80.7517 71.4652 75.8893 76.3275 75.8893 82.3255Z" fill="#FF7622"/>
<path fill-rule="evenodd" clip-rule="evenodd" d="M48.3219 100.945C48.3219 100.462 48.7135 100.071 49.1964 100.071H62.5124C62.9954 100.071 63.3869 100.462 63.3869 100.945C63.3869 101.428 62.9954 101.82 62.5124 101.82H49.1964C48.7135 101.82 48.3219 101.428 48.3219 100.945Z" fill="#FF7622"/>
<path fill-rule="evenodd" clip-rule="evenodd" d="M109.549 100.945C109.549 100.462 109.94 100.071 110.423 100.071H123.739C124.222 100.071 124.614 100.462 124.614 100.945C124.614 101.428 124.222 101.82 123.739 101.82H110.423C109.94 101.82 109.549 101.428 109.549 100.945Z" fill="#FF7622"/>
<path fill-rule="evenodd" clip-rule="evenodd" d="M37.6881 108.035C37.6881 107.552 38.0796 107.161 38.5626 107.161L62.5126 107.161C62.9956 107.161 63.3872 107.552 63.3872 108.035C63.3872 108.518 62.9956 108.91 62.5126 108.91L38.5626 108.91C38.0796 108.91 37.6881 108.518 37.6881 108.035Z" fill="#FF7622"/>
<path fill-rule="evenodd" clip-rule="evenodd" d="M98.9149 108.035C98.9149 107.552 99.3064 107.161 99.7894 107.161L123.739 107.161C124.222 107.161 124.614 107.552 124.614 108.035C124.614 108.518 124.222 108.91 123.739 108.91L99.7894 108.91C99.3064 108.91 98.9149 108.518 98.9149 108.035Z" fill="#FF7622"/>
<path fill-rule="evenodd" clip-rule="evenodd" d="M48.3219 115.125C48.3219 114.643 48.7135 114.251 49.1964 114.251L73.1465 114.251C73.6294 114.251 74.021 114.643 74.021 115.125C74.021 115.608 73.6294 116 73.1465 116L49.1964 116C48.7135 116 48.3219 115.608 48.3219 115.125Z" fill="#FF7622"/>
<path fill-rule="evenodd" clip-rule="evenodd" d="M109.549 115.125C109.549 114.643 109.94 114.251 110.423 114.251L134.373 114.251C134.856 114.251 135.248 114.643 135.248 115.125C135.248 115.608 134.856 116 134.373 116L110.423 116C109.94 116 109.549 115.608 109.549 115.125Z" fill="#FF7622"/>
<path d="M156.587 52.6835C158.723 52.6835 160.472 50.9485 160.276 48.822C159.379 39.086 155.108 29.9203 148.138 22.9499C140.252 15.064 129.556 10.6338 118.404 10.6338C107.252 10.6338 96.5563 15.064 88.6705 22.9499C81.7 29.9203 77.4294 39.086 76.5319 48.822C76.3359 50.9485 78.0855 52.6835 80.221 52.6835L118.404 52.6835H156.587Z" fill="#FF7622"/>
<path d="M123.721 7.73405C123.721 10.9373 121.341 13.534 118.404 13.534C115.468 13.534 113.088 10.9373 113.088 7.73405C113.088 4.53081 115.468 1.93408 118.404 1.93408C121.341 1.93408 123.721 4.53081 123.721 7.73405Z" fill="white"/>
<path fill-rule="evenodd" clip-rule="evenodd" d="M118.404 3.86664C116.691 3.86664 115.021 5.43601 115.021 7.73328C115.021 10.0306 116.691 11.5999 118.404 11.5999C120.118 11.5999 121.788 10.0306 121.788 7.73328C121.788 5.43601 120.118 3.86664 118.404 3.86664ZM111.155 7.73328C111.155 3.6241 114.246 0 118.404 0C122.563 0 125.654 3.6241 125.654 7.73328C125.654 11.8425 122.563 15.4666 118.404 15.4666C114.246 15.4666 111.155 11.8425 111.155 7.73328Z" fill="#FF7622"/>
<path d="M101.235 23.6846C100.766 22.9056 99.7548 22.6454 98.9923 23.1409C93.2282 26.8865 88.7042 32.2187 85.982 38.4741C85.6106 39.3277 86.0582 40.3018 86.9319 40.6231C87.7944 40.9404 88.7473 40.501 89.1175 39.6599C91.5601 34.1103 95.573 29.3713 100.674 26.0117C101.447 25.503 101.712 24.477 101.235 23.6846Z" fill="white"/>
<path d="M107.953 20.685C107.666 19.8215 106.735 19.3466 105.883 19.6656C104.971 20.0073 104.073 20.3863 103.192 20.8015C102.356 21.1955 102.052 22.2156 102.494 23.0269C102.93 23.8251 103.924 24.1203 104.748 23.7358C105.455 23.406 106.173 23.102 106.903 22.8243C107.763 22.4967 108.242 21.5585 107.953 20.685Z" fill="white"/>
<rect x="224.254" y="29.9663" width="18.3666" height="79.2662" rx="8.91005" fill="#07070F"/>
<path d="M236.82 80.7162C236.82 96.4654 224.053 109.233 208.304 109.233C192.555 109.233 179.787 96.4654 179.787 80.7162C179.787 64.967 192.555 52.1997 208.304 52.1997C224.053 52.1997 236.82 64.967 236.82 80.7162ZM196.655 80.7162C196.655 87.1499 201.87 92.3654 208.304 92.3654C214.738 92.3654 219.953 87.1499 219.953 80.7162C219.953 74.2825 214.738 69.067 208.304 69.067C201.87 69.067 196.655 74.2825 196.655 80.7162Z" fill="#07070F"/>
</g>
<defs>
<filter id="filter0_d_601_477" x="0" y="0" width="246.62" height="124" filterUnits="userSpaceOnUse" color-interpolation-filters="sRGB">
<feFlood flood-opacity="0" result="BackgroundImageFix"/>
<feColorMatrix in="SourceAlpha" type="matrix" values="0 0 0 0 0 0 0 0 0 0 0 0 0 0 0 0 0 0 127 0" result="hardAlpha"/>
<feOffset dy="4"/>
<feGaussianBlur stdDeviation="2"/>
<feComposite in2="hardAlpha" operator="out"/>
<feColorMatrix type="matrix" values="0 0 0 0 0 0 0 0 0 0 0 0 0 0 0 0 0 0 0.25 0"/>
<feBlend mode="normal" in2="BackgroundImageFix" result="effect1_dropShadow_601_477"/>
<feBlend mode="normal" in="SourceGraphic" in2="effect1_dropShadow_601_477" result="shape"/>
</filter>
</defs>
</svg>
